Title:
Foxfire

Country:
France/USA, 2012

Language:
English

Director:
Laurent Cantet

Writers:
Laurent Cantet (screenplay), Joyce Carol Oates (novel)

Stars:
Ali Liebert, Michelle Nolden, Tamara Hope 

Synopsis:
1955. A working class neighborhood of a small town in the United States. Five female teenagers make a life and death pact: they will be the Foxfire gang and will live by their own rules. But this freedom has a price...

Imdb: 
http://www.imdb.com/title/tt177227

Trivia:
Won Best Actress - Katie Coseni - in San Sebastian International Film Festival 2012

Trailer: 
http://www.bandes-annonces.fr/film-2012/bande-annonce-foxfire-confessionsdungangdefilles.html



Media Info:

Geral
Complete name                            : Foxfire.2012.BRRip.XviD.AC3.HORiZON-ArtSubs
Format                                   : AVI
Format/Info                              : Audio Video Interleave
Format profile                           : OpenDML
File size                                : 2.46 GiB
Duration                                 : 2h 23mn
Overall bit rate                         : 2 461 Kbps
Writing application                      : Lavf52.94.0

Vídeo
ID                                       : 0
Format                                   : MPEG-4 Visual
Format profile                           : Simple@L3
Format settings, BVOP                    : Não
Format settings, QPel                    : Não
Format settings, GMC                     : Sem warppoints
Format settings, Matrix                  : Default (H.263)
Codec ID                                 : XVID
Codec ID/Hint                            : XviD
Duration                                 : 2h 23mn
Bit rate                                 : 2 227 Kbps
Width                                    : 1 280 pixels
Height                                   : 544 pixels
Display aspect ratio                     : 2.35:1
Frame rate                               : 23.976 fps
Color space                              : YUV
Chroma subsampling                       : 4:2:0
Bit depth                                : 8 bits
Scan type                                : Progressivo
Bits/(Pixel*Frame)                       : 0.133
Stream size                              : 2.23 GiB (90%)
Writing library                          : XviD 1.2.1 (UTC 2008-12-04)

Áudio
ID                                       : 1
Format                                   : AC-3
Format/Info                              : Audio Coding 3
Mode extension                           : CM (complete main)
Format settings, Endianness              : Big
Codec ID                                 : 2000
Duration                                 : 2h 23mn
Bit rate mode                            : Constante
Bit rate                                 : 224 Kbps
Channel(s)                               : 2 canais
Channel positions                        : Front: L R
Sampling rate                            : 48.0 KHz
Bit depth                                : 16 bits
Stream size                              : 230 MiB (9%)
Alignment                                : Alinhado intercalado
Interleave, duration                     : 32 ms (0.77 quadro de vídeo)
Interleave, preload duration             : 32 ms

